<?xml version="1.0" encoding="UTF-8" standalone="no"?>
<!-- Created with Inkscape (http://www.inkscape.org/) -->

<svg
   width="121.926mm"
   height="45.003712mm"
   viewBox="0 0 121.92602 45.003711"
   version="1.1"
   id="svg5"
   xml:space="preserve"
   inkscape:version="1.2.2 (b0a84865, 2022-12-01)"
   sodipodi:docname="MAKE Roanoke_rendered.svg"
   inkscape:export-filename="MAKE Roanoke Flat_v3.png"
   inkscape:export-xdpi="128"
   inkscape:export-ydpi="128"
   xmlns:inkscape="http://www.inkscape.org/namespaces/inkscape"
   xmlns:sodipodi="http://sodipodi.sourceforge.net/DTD/sodipodi-0.dtd"
   xmlns="http://www.w3.org/2000/svg"
   xmlns:svg="http://www.w3.org/2000/svg"><sodipodi:namedview
     id="namedview7"
     pagecolor="#ffffff"
     bordercolor="#666666"
     borderopacity="1.0"
     inkscape:showpageshadow="2"
     inkscape:pageopacity="0.0"
     inkscape:pagecheckerboard="0"
     inkscape:deskcolor="#d1d1d1"
     inkscape:document-units="mm"
     showgrid="false"
     showguides="true"
     inkscape:zoom="1.6045725"
     inkscape:cx="237.13481"
     inkscape:cy="103.14274"
     inkscape:window-width="1920"
     inkscape:window-height="1027"
     inkscape:window-x="1440"
     inkscape:window-y="25"
     inkscape:window-maximized="1"
     inkscape:current-layer="layer1"><sodipodi:guide
       position="134.215,54.965076"
       orientation="-1,0"
       id="guide3539"
       inkscape:locked="false"
       inkscape:label=""
       inkscape:color="rgb(0,134,229)" /><sodipodi:guide
       position="88.455552,52.746596"
       orientation="0,-1"
       id="guide7304"
       inkscape:locked="false" /><sodipodi:guide
       position="106.21332,46.767286"
       orientation="0,-1"
       id="guide9457"
       inkscape:locked="false" /><sodipodi:guide
       position="110.80461,62.821636"
       orientation="-1,0"
       id="guide9459"
       inkscape:locked="false"
       inkscape:label=""
       inkscape:color="rgb(0,134,229)" /><sodipodi:guide
       position="16.214124,69.278226"
       orientation="1,0"
       id="guide9461"
       inkscape:locked="false" /><sodipodi:guide
       position="10.999971,21.989227"
       orientation="-1,0"
       id="guide956"
       inkscape:locked="false"
       inkscape:label=""
       inkscape:color="rgb(0,134,229)" /><sodipodi:guide
       position="24.999971,35.732906"
       orientation="-1,0"
       id="guide960"
       inkscape:locked="false"
       inkscape:label=""
       inkscape:color="rgb(0,134,229)" /><sodipodi:guide
       position="97.499971,30.920305"
       orientation="-1,0"
       id="guide962"
       inkscape:locked="false"
       inkscape:label=""
       inkscape:color="rgb(0,134,229)" /><sodipodi:guide
       position="114.15341,24.348585"
       orientation="0,1"
       id="guide1915"
       inkscape:locked="false"
       inkscape:label=""
       inkscape:color="rgb(0,134,229)" /><sodipodi:guide
       position="114.52548,16.348586"
       orientation="0,1"
       id="guide1917"
       inkscape:locked="false"
       inkscape:label=""
       inkscape:color="rgb(0,134,229)" /><sodipodi:guide
       position="34.621327,20.348588"
       orientation="0,1"
       id="guide3597"
       inkscape:locked="false"
       inkscape:label=""
       inkscape:color="rgb(0,134,229)" /><sodipodi:guide
       position="36.533656,85.768846"
       orientation="1,0"
       id="guide429"
       inkscape:locked="false" /><sodipodi:guide
       position="91.317719,89.136436"
       orientation="-1,0"
       id="guide431"
       inkscape:locked="false"
       inkscape:label=""
       inkscape:color="rgb(0,134,229)" /><sodipodi:guide
       position="60.90229,76.975676"
       orientation="-1,0"
       id="guide433"
       inkscape:locked="false"
       inkscape:label=""
       inkscape:color="rgb(0,134,229)" /><sodipodi:guide
       position="74.56141,26.448575"
       orientation="0,-1"
       id="guide2839"
       inkscape:locked="false" /><sodipodi:guide
       position="91.613645,14.248599"
       orientation="0,-1"
       id="guide2841"
       inkscape:locked="false" /></sodipodi:namedview><defs
     id="defs2"><rect
       x="162.79491"
       y="263.53796"
       width="362.82095"
       height="71.54216"
       id="rect3452" /></defs><g
     inkscape:groupmode="layer"
     id="layer4"
     inkscape:label="Background"
     transform="translate(6.2149891,-36.616296)" /><g
     inkscape:groupmode="layer"
     id="layer2"
     inkscape:label="New"
     transform="translate(-5.0000287,-61.344875)"><path
       id="path930"
       style="opacity:1;fill:#000000;fill-opacity:1;stroke-width:0.5;stroke-linecap:round;stroke-linejoin:round;stroke-dasharray:none;stroke-dashoffset:15.1181;paint-order:markers fill stroke"
       inkscape:label="Wrench Head"
       d="m 115.79223,74.813615 c -0.10342,2e-6 -0.20556,0.0017 -0.30696,0.0047 -0.0586,0.0016 -0.11631,0.0042 -0.17415,0.0067 -0.034,0.0016 -0.0681,0.0028 -0.1018,0.0047 -6.96537,0.362657 -8.64047,7.170623 -12.70982,7.170622 H 79.561369 30.000053 v -0.01034 c -1.863418,0.01934 -3.148595,-0.655159 -4.400248,-1.369942 l 5.17e-4,0.02067 A 11,11 0 0 0 15.999874,75.000167 11,11 0 0 0 5.0000287,86.000012 11,11 0 0 0 15.999874,96.999858 11,11 0 0 0 25.600322,91.359892 l -5.17e-4,0.01033 c 1.251653,-0.714782 2.53683,-1.389282 4.400248,-1.369942 H 79.561369 102.4995 c 3.59775,0.643208 4.77684,0.704242 6.41202,2.356962 1.70775,1.619854 4.00633,3.606501 6.89467,3.610632 6.2665,-0.04505 11.08393,-5.772244 11.12025,-7.665165 l -8.42016,2.256193 c -1.33781,0.358464 -2.99189,-1.506582 -3.70882,-4.182173 -0.71693,-2.675598 -0.21742,-5.118207 1.12035,-5.476669 l 8.62634,-2.311486 c -2.84986,-2.351669 -5.5565,-3.774607 -8.75192,-3.774964 z m -99.792356,2.161109 2.018482,6.258532 6.575826,-0.01447 -5.328357,3.854028 2.04587,6.249748 -5.311821,-3.877283 -5.31182,3.877283 2.04587,-6.249748 -5.3283574,-3.854028 6.5758264,0.01447 z m 93.664046,1.185457 a 0.125,0.125 0 0 1 0.0842,0.04496 0.125,0.125 0 0 1 -0.0181,0.1757 c -1.64398,1.341967 -2.3878,4.149867 -2.19521,7.015593 0.19258,2.865726 1.31849,5.774439 3.31866,7.316349 a 0.125,0.125 0 0 1 0.0212,0.17415 0.125,0.125 0 0 1 -0.1757,0.02325 c -2.08412,-1.606602 -3.21603,-4.579231 -3.41219,-7.49825 -0.19616,-2.919019 0.53873,-5.798796 2.28513,-7.224366 a 0.125,0.125 0 0 1 0.092,-0.02739 z m -83.414542,3.705717 a 0.125,0.125 0 0 1 0.100252,0.07545 c 0.562573,1.330053 0.775125,2.518659 0.775146,4.048849 h 2.750737 c 0.0034,-0.580006 0.305182,-1.10069 0.778764,-1.470711 0.476283,-0.372136 1.127177,-0.59738 1.845882,-0.59738 h 47.06121 20.176546 c 0.718705,0 1.369605,0.225244 1.845885,0.59738 0.47627,0.372133 0.77928,0.896531 0.77928,1.480529 0,0.584001 -0.30301,1.108397 -0.77928,1.48053 -0.47628,0.372136 -1.12718,0.59738 -1.845885,0.59738 H 79.561369 32.500159 c -0.718705,0 -1.369599,-0.225244 -1.845882,-0.59738 -0.476286,-0.372133 -0.779281,-0.896529 -0.779281,-1.48053 h -2.75022 c -2.1e-5,1.53019 -0.212577,2.7188 -0.775146,4.048849 a 0.125,0.125 0 0 1 -0.164331,0.06666 0.125,0.125 0 0 1 -0.06615,-0.164332 c 0.550678,-1.30192 0.755489,-2.443879 0.75551,-3.95118 a 0.125,0.125 0 0 1 5.16e-4,-0.0046 0.125,0.125 0 0 1 -5.16e-4,-0.0052 c -2.1e-5,-1.5073 -0.204832,-2.649256 -0.75551,-3.95118 a 0.125,0.125 0 0 1 0.06615,-0.163814 0.125,0.125 0 0 1 0.06408,-0.0093 z m 6.250781,2.305802 c -0.666288,0 -1.265974,0.211198 -1.693437,0.545187 -0.427461,0.333986 -0.681612,0.78499 -0.681612,1.283125 0,0.498138 0.254151,0.94914 0.681612,1.283126 0.427463,0.333989 1.027149,0.545187 1.693437,0.545187 h 47.06121 20.176546 c 0.666285,0 1.264415,-0.211198 1.691885,-0.545187 0.42746,-0.333986 0.68316,-0.784988 0.68316,-1.283126 0,-0.498135 -0.2557,-0.949139 -0.68316,-1.283125 C 101.00233,84.382898 100.4042,84.1717 99.737915,84.1717 H 79.561369 Z" /></g><g
     inkscape:label="Old"
     inkscape:groupmode="layer"
     id="layer1"
     transform="translate(6.2149891,-36.616296)"><g
       aria-label="MAKE"
       id="text3510"
       style="font-weight:bold;font-size:26.4583px;line-height:1.25;font-family:'Istok Web';-inkscape-font-specification:'Istok Web, Bold';stroke-width:0.264583"><path
         d="m 19.301904,55.142273 q -0.904336,0 -0.904336,-0.968932 V 37.585227 q 0,-0.968931 0.904336,-0.968931 h 3.746537 q 0.749307,0 1.072284,1.033527 l 3.501074,11.330043 q 0.232544,0.736388 0.322977,1.214395 0.09043,0.465087 0.155029,1.111042 h 0.07752 q 0.06459,-0.645955 0.155029,-1.111042 0.09043,-0.478007 0.322977,-1.214395 L 32.1564,37.649823 q 0.322978,-1.033527 1.072285,-1.033527 h 3.746536 q 0.904337,0 0.904337,0.968931 v 16.588114 q 0,0.968932 -0.904337,0.968932 h -1.963702 q -0.904336,0 -0.904336,-0.968932 v -10.67117 q 0,-0.775145 0.0646,-1.550291 h -0.09043 l -3.733618,12.143947 q -0.322977,1.046446 -1.111041,1.046446 H 27.04044 q -0.788065,0 -1.111042,-1.046446 L 22.195781,41.95188 h -0.09043 q 0.0646,0.775146 0.0646,1.550291 v 10.67117 q 0,0.968932 -0.904336,0.968932 z"
         id="path3070" /><path
         d="m 41.432309,55.142273 q -0.930175,0 -0.607197,-0.85266 l 6.330354,-16.626871 q 0.400492,-1.046446 1.214395,-1.046446 h 1.808673 q 0.813903,0 1.214394,1.046446 l 6.330355,16.626871 q 0.322978,0.85266 -0.607197,0.85266 h -2.054135 q -0.852661,0 -1.188557,-0.891417 L 52.555647,50.77562 h -6.562899 l -1.317747,3.475236 q -0.335897,0.891417 -1.188557,0.891417 z m 5.761915,-7.570588 h 4.159947 l -1.589048,-4.108271 q -0.28422,-0.723469 -0.348816,-1.046446 -0.05168,-0.335897 -0.116271,-0.981851 h -0.05168 q -0.0646,0.645954 -0.129191,0.981851 -0.05168,0.322977 -0.335896,1.046446 z"
         id="path3072" /><path
         d="m 60.927217,55.142273 q -0.904337,0 -0.904337,-0.968932 V 37.585227 q 0,-0.968931 0.904337,-0.968931 h 1.963702 q 0.904336,0 0.904336,0.968931 v 5.141799 q 0,0.775145 -0.06459,1.550291 h 0.09043 l 6.278679,-6.898795 q 0.697631,-0.762226 1.188556,-0.762226 h 2.596738 q 1.511533,0 0.490925,1.111041 l -5.878186,6.433708 6.291597,9.870186 q 0.71055,1.111042 -0.490925,1.111042 h -2.41587 q -0.671793,0 -1.162719,-0.762226 l -4.754225,-7.454316 -2.170408,2.441708 v 4.805902 q 0,0.968932 -0.904336,0.968932 z"
         id="path3074" /><path
         d="m 78.510103,55.142273 q -0.904337,0 -0.904337,-0.968932 V 37.585227 q 0,-0.968931 0.904337,-0.968931 h 11.08458 q 0.968932,0 0.968932,0.839741 v 1.524452 q 0,0.839741 -0.968932,0.839741 h -8.216542 v 4.108271 h 7.53183 q 0.968932,0 0.968932,0.839741 v 1.524453 q 0,0.839741 -0.968932,0.839741 h -7.53183 v 4.805902 h 8.629953 q 0.968932,0 0.968932,0.839741 v 1.524453 q 0,0.839741 -0.968932,0.839741 z"
         id="path3076" /></g><g
       aria-label="Roanoke"
       id="text3510-1"
       style="font-size:17.9917px;line-height:1.05;font-family:nas;-inkscape-font-specification:'nas, Normal';letter-spacing:-0.661458px;stroke-width:0.264583"><path
         d="m 19.289719,81.453094 q -0.490925,0 -0.490925,-0.540017 V 67.913375 q 0,-0.540017 0.490925,-0.540017 h 4.742339 q 2.837548,0 4.104135,1.060398 1.276406,1.060399 1.276406,2.798274 0,1.531687 -1.030943,2.572449 -1.021125,1.040761 -2.916097,1.197857 v 0.01964 q 1.001488,0.746207 1.325499,1.138947 0.32401,0.382922 0.726569,1.040762 l 2.218982,3.603391 q 0.402559,0.648021 -0.176733,0.648021 h -1.119309 q -0.46147,0 -0.687296,-0.382921 L 25.711022,77.564966 Q 25.269189,76.808941 24.444435,76.082372 23.61968,75.355803 22.392367,75.355803 h -1.70842 v 5.557274 q 0,0.540017 -0.490925,0.540017 z m 1.394228,-7.707526 h 2.837548 q 1.914609,0 2.945552,-0.500744 1.030943,-0.510562 1.030943,-2.130616 0,-1.237131 -0.942577,-1.678964 -0.942576,-0.451651 -2.562629,-0.451651 h -3.308837 z"
         style="font-size:20.1083px;font-family:'Istok Web';-inkscape-font-specification:'Istok Web, Normal'"
         id="path3079" /><path
         d="m 30.98976,76.298379 q 0,-2.307349 1.217494,-3.80958 1.227313,-1.51205 3.583755,-1.51205 2.356441,0 3.573936,1.51205 1.227313,1.502231 1.227313,3.80958 0,2.307349 -1.227313,3.819399 -1.217495,1.502231 -3.573936,1.502231 -2.356442,0 -3.583755,-1.502231 -1.217494,-1.51205 -1.217494,-3.819399 z m 1.826242,0 q 0,2.061886 0.814936,3.053555 0.814936,0.991669 2.160071,0.991669 1.345135,0 2.160071,-0.991669 0.814936,-0.991669 0.814936,-3.053555 0,-2.061886 -0.814936,-3.053555 -0.814936,-0.991669 -2.160071,-0.991669 -1.345135,0 -2.160071,0.991669 -0.814936,0.991669 -0.814936,3.053555 z"
         style="font-size:20.1083px;font-family:'Istok Web';-inkscape-font-specification:'Istok Web, Normal'"
         id="path3081" /><path
         d="m 41.599946,78.703913 q 0,-1.747694 1.629872,-2.56263 1.639691,-0.814936 4.889616,-0.952395 V 74.52123 q 0,-0.92294 -0.422196,-1.590598 -0.412377,-0.677477 -1.649509,-0.677477 -0.78548,0 -1.256769,0.157096 -0.471288,0.147278 -0.864028,0.402559 -0.382922,0.245462 -0.736388,0.638203 -0.2651,0.294555 -0.500744,0.02945 l -0.510562,-0.58911 q -0.216007,-0.245463 0.147278,-0.589111 0.52038,-0.490925 1.011306,-0.736388 0.490925,-0.245462 1.217494,-0.412377 0.736388,-0.176733 1.492413,-0.176733 2.052068,0 2.925915,1.060399 0.873847,1.05058 0.873847,2.88664 v 6.087474 q 0,0.441832 -0.441833,0.441832 h -0.883665 q -0.382922,0 -0.382922,-0.441832 v -0.481107 h -0.01964 q -0.775662,0.608747 -1.521869,0.85421 -0.736387,0.235644 -1.649508,0.235644 -1.610235,0 -2.484082,-0.765843 -0.864029,-0.775662 -0.864029,-2.150253 z m 1.786968,0.03927 q 0,0.608747 0.255281,0.981851 0.255281,0.363284 0.706933,0.471288 0.451651,0.09819 0.942576,0.09819 0.756025,0 1.433502,-0.147278 0.677477,-0.147277 1.394228,-0.775662 v -2.896459 q -1.983338,0.147278 -2.82773,0.363285 -0.844391,0.206189 -1.374591,0.726569 -0.530199,0.510563 -0.530199,1.178221 z"
         style="font-size:20.1083px;font-family:'Istok Web';-inkscape-font-specification:'Istok Web, Normal'"
         id="path3083" /><path
         d="m 52.41632,81.453094 q -0.441833,0 -0.441833,-0.441832 v -9.425766 q 0,-0.441832 0.441833,-0.441832 h 0.824754 q 0.441833,0 0.441833,0.441832 v 0.785481 h 0.03927 q 0.638203,-0.706932 1.374591,-1.05058 0.736388,-0.343648 1.83606,-0.343648 1.786968,0 2.56263,1.011306 0.785481,1.001488 0.785481,2.749182 v 6.274025 q 0,0.441832 -0.441833,0.441832 h -0.844391 q -0.441833,0 -0.441833,-0.441832 v -5.802737 q 0,-1.924427 -0.638203,-2.434989 -0.638203,-0.520381 -1.620053,-0.520381 -1.276406,0 -1.934246,0.765843 -0.65784,0.756025 -0.65784,2.601904 v 5.39036 q 0,0.441832 -0.441833,0.441832 z"
         style="font-size:20.1083px;font-family:'Istok Web';-inkscape-font-specification:'Istok Web, Normal'"
         id="path3085" /><path
         d="m 61.828651,76.298379 q 0,-2.307349 1.217494,-3.80958 1.227314,-1.51205 3.583755,-1.51205 2.356441,0 3.573936,1.51205 1.227313,1.502231 1.227313,3.80958 0,2.307349 -1.227313,3.819399 -1.217495,1.502231 -3.573936,1.502231 -2.356441,0 -3.583755,-1.502231 -1.217494,-1.51205 -1.217494,-3.819399 z m 1.826242,0 q 0,2.061886 0.814936,3.053555 0.814936,0.991669 2.160071,0.991669 1.345135,0 2.160071,-0.991669 0.814936,-0.991669 0.814936,-3.053555 0,-2.061886 -0.814936,-3.053555 -0.814936,-0.991669 -2.160071,-0.991669 -1.345135,0 -2.160071,0.991669 -0.814936,0.991669 -0.814936,3.053555 z"
         style="font-size:20.1083px;font-family:'Istok Web';-inkscape-font-specification:'Istok Web, Normal'"
         id="path3087" /><path
         d="m 73.440326,81.453094 q -0.441833,0 -0.441833,-0.441832 V 67.402813 q 0,-0.441833 0.441833,-0.441833 h 0.844391 q 0.441833,0 0.441833,0.441833 v 8.168997 q 0,0.294555 -0.01964,0.58911 h 0.01964 l 3.976495,-4.761975 q 0.216007,-0.255281 0.52038,-0.255281 h 0.893484 q 0.746207,0 0.255282,0.579292 l -3.083011,3.672121 3.524843,5.478726 q 0.373104,0.579291 -0.255281,0.579291 h -0.962213 q -0.324011,0 -0.559655,-0.363284 l -2.82773,-4.408509 -1.482594,1.767331 v 2.56263 q 0,0.441832 -0.441833,0.441832 z"
         style="font-size:20.1083px;font-family:'Istok Web';-inkscape-font-specification:'Istok Web, Normal'"
         id="path3089" /><path
         d="m 81.625339,76.298379 q 0,-2.434989 1.217494,-3.87831 1.217495,-1.44332 3.48557,-1.44332 1.885153,0 3.122285,1.325498 1.24695,1.31568 1.24695,4.212139 0,0.441833 -0.402559,0.441833 h -6.843498 q 0.166914,1.894972 1.021124,2.641178 0.85421,0.736388 1.934246,0.736388 1.138947,0 1.747694,-0.382922 0.608747,-0.382922 0.893484,-0.756025 0.314192,-0.412377 0.608747,-0.157096 l 0.579292,0.500744 q 0.225826,0.19637 0,0.540018 -0.186552,0.284736 -1.070217,0.913121 -0.873847,0.628384 -2.759,0.628384 -2.454626,0 -3.623029,-1.44332 -1.158583,-1.443321 -1.158583,-3.87831 z m 1.786968,-0.618566 h 5.547455 q -0.03927,-1.374591 -0.706932,-2.405534 -0.667658,-1.040761 -1.963701,-1.040761 -1.138947,0 -1.934246,0.765843 -0.795299,0.756025 -0.942576,2.680452 z"
         style="font-size:20.1083px;font-family:'Istok Web';-inkscape-font-specification:'Istok Web, Normal'"
         id="path3091" /></g></g></svg>
