<?xml version="1.0" encoding="utf-8"?>
<!-- Generator: Adobe Illustrator 17.0.0, SVG Export Plug-In . SVG Version: 6.00 Build 0)  -->
<!DOCTYPE svg PUBLIC "-//W3C//DTD SVG 1.1//EN" "http://www.w3.org/Graphics/SVG/1.1/DTD/svg11.dtd">
<svg version="1.1" id="Layer_1" xmlns="http://www.w3.org/2000/svg" xmlns:xlink="http://www.w3.org/1999/xlink" x="0px" y="0px"
	 width="360px" height="179px" viewBox="0 0 360 179" enable-background="new 0 0 360 179" xml:space="preserve">
<g>
	<path d="M46.885,170.91v-5.924h1.549v1.116c0.184-0.381,0.438-0.685,0.758-0.911s0.678-0.34,1.072-0.34
		c0.094,0,0.189,0.011,0.287,0.032v1.424c-0.217-0.082-0.42-0.124-0.611-0.124c-0.307,0-0.586,0.08-0.837,0.24
		s-0.474,0.402-0.669,0.726v3.761H46.885z"/>
	<path d="M54.474,171.045c-0.62,0-1.153-0.125-1.598-0.375s-0.784-0.617-1.017-1.104c-0.234-0.485-0.351-1.024-0.351-1.618
		c0-0.59,0.114-1.127,0.345-1.61c0.23-0.484,0.568-0.853,1.015-1.106s0.981-0.38,1.605-0.38c0.628,0,1.163,0.126,1.607,0.38
		s0.782,0.622,1.015,1.106c0.232,0.483,0.348,1.021,0.348,1.61c0,0.594-0.117,1.133-0.35,1.618
		c-0.234,0.486-0.573,0.854-1.018,1.104C55.631,170.92,55.098,171.045,54.474,171.045z M54.474,170.047
		c0.438,0,0.769-0.198,0.991-0.596c0.221-0.397,0.332-0.898,0.332-1.503c0-0.601-0.111-1.101-0.332-1.5
		c-0.223-0.399-0.553-0.599-0.991-0.599c-0.437,0-0.765,0.199-0.985,0.599c-0.223,0.399-0.332,0.899-0.332,1.5
		c0,0.604,0.109,1.105,0.332,1.503C53.709,169.849,54.037,170.047,54.474,170.047z"/>
	<path d="M61.941,170.273c-0.224,0.223-0.417,0.383-0.58,0.48c-0.164,0.097-0.336,0.17-0.514,0.219
		c-0.178,0.048-0.365,0.072-0.564,0.072c-0.512,0-0.922-0.164-1.23-0.493s-0.463-0.733-0.463-1.212c0-0.582,0.23-1.069,0.692-1.459
		c0.462-0.391,1.21-0.586,2.245-0.586h0.414v-0.539c0-0.363-0.098-0.608-0.293-0.734c-0.195-0.125-0.443-0.188-0.742-0.188
		c-0.594,0-1.197,0.177-1.814,0.529v-1.102c0.7-0.272,1.397-0.409,2.092-0.409c0.425,0,0.805,0.059,1.139,0.178
		c0.336,0.118,0.603,0.303,0.803,0.553c0.201,0.25,0.301,0.623,0.301,1.12v2.622c0,0.32,0.049,0.516,0.145,0.588
		s0.19,0.107,0.285,0.107c0.055,0,0.125-0.007,0.209-0.021l0.036,0.896c-0.327,0.101-0.618,0.151-0.873,0.151
		c-0.286,0-0.532-0.05-0.74-0.148c-0.207-0.099-0.366-0.307-0.478-0.623H61.941z M61.941,169.416v-1.203h-0.366
		c-0.505,0-0.882,0.092-1.13,0.277c-0.247,0.186-0.371,0.416-0.371,0.693c0,0.227,0.075,0.413,0.225,0.559
		c0.15,0.146,0.326,0.219,0.528,0.219c0.182,0,0.365-0.046,0.552-0.138S61.753,169.596,61.941,169.416z"/>
	<path d="M65.691,170.91v-5.924h1.548v1.116c0.278-0.456,0.587-0.779,0.925-0.968c0.339-0.189,0.682-0.283,1.031-0.283
		c0.453,0,0.842,0.149,1.168,0.45c0.326,0.3,0.489,0.774,0.489,1.422v4.187h-1.548v-3.793c0-0.323-0.029-0.543-0.086-0.658
		c-0.059-0.115-0.137-0.202-0.236-0.262c-0.099-0.06-0.209-0.089-0.332-0.089c-0.212,0-0.434,0.072-0.664,0.219
		c-0.229,0.146-0.479,0.431-0.747,0.854v3.729H65.691z"/>
	<path d="M75.444,171.045c-0.62,0-1.153-0.125-1.598-0.375s-0.784-0.617-1.017-1.104c-0.234-0.485-0.351-1.024-0.351-1.618
		c0-0.59,0.114-1.127,0.345-1.61c0.23-0.484,0.568-0.853,1.015-1.106s0.981-0.38,1.605-0.38c0.628,0,1.163,0.126,1.607,0.38
		s0.782,0.622,1.015,1.106c0.232,0.483,0.348,1.021,0.348,1.61c0,0.594-0.117,1.133-0.35,1.618
		c-0.234,0.486-0.573,0.854-1.018,1.104C76.602,170.92,76.068,171.045,75.444,171.045z M75.444,170.047
		c0.438,0,0.769-0.198,0.991-0.596c0.221-0.397,0.332-0.898,0.332-1.503c0-0.601-0.111-1.101-0.332-1.5
		c-0.223-0.399-0.553-0.599-0.991-0.599c-0.437,0-0.765,0.199-0.985,0.599c-0.223,0.399-0.332,0.899-0.332,1.5
		c0,0.604,0.109,1.105,0.332,1.503C74.68,169.849,75.008,170.047,75.444,170.047z"/>
	<path d="M80.1,170.91v-8.52h1.547v5.357h0.1l2.045-2.762h1.295l-1.893,2.539l2.471,3.385h-1.879l-2.039-2.962h-0.1v2.962H80.1z"/>
	<path d="M91.792,170.711c-0.731,0.223-1.424,0.334-2.079,0.334c-0.62,0-1.163-0.119-1.629-0.358
		c-0.467-0.239-0.824-0.613-1.076-1.122c-0.251-0.51-0.377-1.062-0.377-1.659c0-0.555,0.107-1.066,0.32-1.535
		c0.213-0.47,0.523-0.84,0.93-1.111c0.407-0.271,0.909-0.407,1.505-0.407c0.731,0,1.315,0.24,1.751,0.723
		c0.438,0.482,0.655,1.379,0.655,2.692h-3.529c0.034,0.399,0.122,0.714,0.262,0.944c0.14,0.229,0.329,0.412,0.567,0.547
		c0.238,0.136,0.559,0.203,0.959,0.203c0.515,0,1.096-0.124,1.741-0.373V170.711z M88.236,167.365h2.034
		c0-0.543-0.087-0.932-0.261-1.165c-0.174-0.234-0.398-0.351-0.674-0.351c-0.299,0-0.545,0.128-0.738,0.386
		C88.405,166.492,88.285,166.869,88.236,167.365z"/>
	<path d="M93.686,163.988v-1.333h1.548v1.333H93.686z M93.686,170.91v-5.924h1.548v5.924H93.686z"/>
	<path d="M97.436,170.91v-5.924h1.549v1.116c0.278-0.456,0.587-0.779,0.925-0.968c0.339-0.189,0.682-0.283,1.03-0.283
		c0.453,0,0.843,0.149,1.168,0.45c0.326,0.3,0.49,0.774,0.49,1.422v4.187h-1.549v-3.793c0-0.323-0.028-0.543-0.086-0.658
		s-0.136-0.202-0.235-0.262c-0.099-0.06-0.21-0.089-0.332-0.089c-0.212,0-0.435,0.072-0.664,0.219
		c-0.229,0.146-0.479,0.431-0.747,0.854v3.729H97.436z"/>
	<path d="M104.898,170.91v-4.926h-0.789v-0.998h0.789v-0.427c0-0.827,0.184-1.418,0.552-1.772c0.368-0.354,0.89-0.531,1.565-0.531
		c0.457,0,0.928,0.068,1.412,0.205v1.079c-0.439-0.19-0.833-0.286-1.182-0.286c-0.164,0-0.305,0.033-0.421,0.1
		c-0.116,0.067-0.209,0.179-0.276,0.335c-0.068,0.156-0.103,0.427-0.103,0.812v0.486h1.454v0.998h-1.454v4.926H104.898z"/>
	<path d="M111.896,171.045c-0.621,0-1.154-0.125-1.598-0.375c-0.445-0.25-0.784-0.617-1.018-1.104
		c-0.233-0.485-0.35-1.024-0.35-1.618c0-0.59,0.114-1.127,0.344-1.61c0.23-0.484,0.568-0.853,1.016-1.106
		c0.445-0.254,0.98-0.38,1.605-0.38c0.627,0,1.162,0.126,1.607,0.38c0.444,0.254,0.782,0.622,1.014,1.106
		c0.232,0.483,0.348,1.021,0.348,1.61c0,0.594-0.116,1.133-0.35,1.618c-0.234,0.486-0.572,0.854-1.018,1.104
		C113.054,170.92,112.52,171.045,111.896,171.045z M111.896,170.047c0.438,0,0.769-0.198,0.99-0.596
		c0.221-0.397,0.332-0.898,0.332-1.503c0-0.601-0.111-1.101-0.332-1.5c-0.222-0.399-0.552-0.599-0.99-0.599
		c-0.437,0-0.766,0.199-0.986,0.599c-0.222,0.399-0.332,0.899-0.332,1.5c0,0.604,0.11,1.105,0.332,1.503
		C111.131,169.849,111.46,170.047,111.896,170.047z"/>
	<path d="M116.398,170.722v-1.171c0.768,0.331,1.422,0.496,1.967,0.496c0.289,0,0.52-0.062,0.692-0.188s0.259-0.286,0.259-0.48
		c0-0.169-0.064-0.312-0.193-0.427c-0.129-0.111-0.326-0.221-0.591-0.329l-0.522-0.216c-0.541-0.223-0.939-0.469-1.197-0.738
		c-0.259-0.267-0.388-0.613-0.388-1.042c0-0.514,0.194-0.938,0.583-1.273c0.389-0.334,0.982-0.501,1.78-0.501
		c0.468,0,1.023,0.069,1.669,0.21v1.122c-0.621-0.223-1.135-0.334-1.543-0.334c-0.32,0-0.562,0.057-0.722,0.17
		c-0.161,0.113-0.241,0.26-0.241,0.439c0,0.141,0.053,0.265,0.157,0.372c0.101,0.108,0.286,0.214,0.554,0.318l0.45,0.178
		c0.743,0.292,1.229,0.574,1.459,0.848c0.227,0.277,0.34,0.607,0.34,0.992c0,0.5-0.208,0.938-0.624,1.314
		c-0.418,0.376-1.023,0.563-1.818,0.563C117.793,171.045,117.104,170.938,116.398,170.722z"/>
	<path d="M127.521,170.711c-0.73,0.223-1.424,0.334-2.078,0.334c-0.621,0-1.164-0.119-1.63-0.358s-0.825-0.613-1.076-1.122
		c-0.251-0.51-0.376-1.062-0.376-1.659c0-0.555,0.105-1.066,0.318-1.535c0.214-0.47,0.523-0.84,0.932-1.111
		c0.406-0.271,0.908-0.407,1.504-0.407c0.73,0,1.314,0.24,1.752,0.723c0.436,0.482,0.654,1.379,0.654,2.692h-3.529
		c0.034,0.399,0.121,0.714,0.262,0.944c0.14,0.229,0.329,0.412,0.567,0.547c0.238,0.136,0.558,0.203,0.959,0.203
		c0.515,0,1.095-0.124,1.741-0.373V170.711z M123.966,167.365H126c0-0.543-0.087-0.932-0.261-1.165
		c-0.174-0.234-0.398-0.351-0.674-0.351c-0.3,0-0.546,0.128-0.738,0.386C124.135,166.492,124.014,166.869,123.966,167.365z"/>
	<path d="M133.604,170.78c-0.634,0.177-1.225,0.265-1.773,0.265c-0.973,0-1.703-0.3-2.192-0.898s-0.734-1.333-0.734-2.204
		c0-0.913,0.259-1.657,0.775-2.23c0.517-0.574,1.277-0.86,2.28-0.86c0.462,0,0.994,0.077,1.598,0.231v1.154
		c-0.623-0.212-1.118-0.318-1.488-0.318c-0.526,0-0.911,0.21-1.154,0.629c-0.242,0.419-0.363,0.881-0.363,1.384
		c0,0.389,0.069,0.751,0.21,1.088c0.14,0.336,0.336,0.581,0.587,0.736c0.252,0.154,0.535,0.231,0.85,0.231
		c0.455,0,0.924-0.104,1.406-0.312V170.78z"/>
	<path d="M134.902,170.91v-1.731h1.678v1.731H134.902z"/>
	<path d="M142.484,170.78c-0.634,0.177-1.225,0.265-1.773,0.265c-0.973,0-1.703-0.3-2.192-0.898s-0.734-1.333-0.734-2.204
		c0-0.913,0.259-1.657,0.775-2.23c0.517-0.574,1.277-0.86,2.28-0.86c0.462,0,0.994,0.077,1.598,0.231v1.154
		c-0.623-0.212-1.118-0.318-1.488-0.318c-0.526,0-0.911,0.21-1.154,0.629c-0.242,0.419-0.363,0.881-0.363,1.384
		c0,0.389,0.069,0.751,0.21,1.088c0.14,0.336,0.336,0.581,0.587,0.736c0.252,0.154,0.535,0.231,0.85,0.231
		c0.455,0,0.924-0.104,1.406-0.312V170.78z"/>
	<path d="M146.556,171.045c-0.62,0-1.153-0.125-1.598-0.375s-0.784-0.617-1.017-1.104c-0.234-0.485-0.351-1.024-0.351-1.618
		c0-0.59,0.114-1.127,0.345-1.61c0.23-0.484,0.568-0.853,1.015-1.106s0.981-0.38,1.605-0.38c0.628,0,1.163,0.126,1.607,0.38
		s0.782,0.622,1.015,1.106c0.232,0.483,0.348,1.021,0.348,1.61c0,0.594-0.117,1.133-0.35,1.618
		c-0.234,0.486-0.573,0.854-1.018,1.104C147.713,170.92,147.18,171.045,146.556,171.045z M146.556,170.047
		c0.438,0,0.769-0.198,0.991-0.596c0.221-0.397,0.332-0.898,0.332-1.503c0-0.601-0.111-1.101-0.332-1.5
		c-0.223-0.399-0.553-0.599-0.991-0.599c-0.437,0-0.765,0.199-0.985,0.599c-0.223,0.399-0.332,0.899-0.332,1.5
		c0,0.604,0.109,1.105,0.332,1.503C145.791,169.849,146.119,170.047,146.556,170.047z"/>
	<path d="M151.049,170.91v-5.924h1.485v1.116c0.195-0.359,0.452-0.658,0.769-0.896c0.317-0.237,0.706-0.355,1.166-0.355
		c0.279,0,0.521,0.044,0.727,0.132c0.206,0.088,0.389,0.227,0.547,0.415c0.158,0.189,0.261,0.424,0.307,0.704
		c0.285-0.445,0.574-0.766,0.869-0.96c0.293-0.194,0.651-0.291,1.072-0.291c0.467,0,0.846,0.141,1.136,0.423
		s0.437,0.738,0.437,1.368v4.268h-1.485v-3.749c0-0.442-0.069-0.729-0.206-0.858c-0.138-0.13-0.291-0.194-0.462-0.194
		c-0.233,0-0.463,0.087-0.69,0.26c-0.229,0.174-0.451,0.434-0.67,0.779v3.763h-1.486v-3.744c0-0.439-0.066-0.725-0.201-0.858
		c-0.134-0.133-0.295-0.199-0.482-0.199c-0.228,0-0.453,0.086-0.678,0.258s-0.447,0.432-0.667,0.781v3.763H151.049z"/>
</g>
<path fill="#37AED1" d="M195.635,88.807c-3.042,0-5.581,2.133-6.214,4.984h-5.358c-1.548,0-2.587,1.503-3.79,3.244
	c-0.376,0.543-0.97,1.403-1.323,1.764h-9.813c-1.642,0-1.931-0.39-2.629-1.333c-0.669-0.903-2.347-2.966-3.405-4.258
	c1.059-1.292,2.737-3.355,3.406-4.258c0.697-0.943,0.986-1.333,2.628-1.333h6.157c0.562,1.023,1.637,1.725,2.887,1.725
	c1.826,0,3.306-1.48,3.306-3.306s-1.48-3.306-3.306-3.306c-1.108,0-2.083,0.55-2.683,1.386h-6.361c-2.849,0-4.152,1.009-5.441,2.75
	c-0.449,0.606-1.431,1.828-2.334,2.938h-17.64c0-3.422,0-6.882,0-10.162h1.299c2.024,0,2.981-2.134,4.09-4.606
	c0.506-1.127,1.437-3.204,2.024-3.562h13.924c0.782,0.33,1.486,0.683,1.799,0.969c0.106,0.161,0.272,0.81,0.393,1.284
	c0.487,1.909,1.302,5.103,4.199,5.103h8.293c0.445,2.546,2.661,4.484,5.335,4.484c2.994,0,5.421-2.427,5.421-5.421
	c0-2.994-2.427-5.421-5.421-5.421c-2.674,0-4.89,1.937-5.335,4.484h-8.293c-1.332,0-1.866-1.671-2.382-3.691
	c-0.256-1.003-0.44-1.728-0.887-2.143c-0.547-0.508-1.518-0.998-2.453-1.396c0.936-0.398,1.906-0.889,2.453-1.397
	c0.446-0.414,0.631-1.139,0.887-2.143c0.516-2.02,1.05-3.692,2.382-3.692h1.252c0.436,1.316,1.662,2.271,3.125,2.271
	c1.826,0,3.306-1.48,3.306-3.306s-1.48-3.306-3.306-3.306c-1.534,0-2.812,1.049-3.185,2.466h-1.191
	c-2.897,0-3.712,3.195-4.199,5.104c-0.12,0.474-0.286,1.123-0.345,1.231c-0.338,0.314-1.059,0.681-1.852,1.02H151.05
	c-2.608,0-3.95,2.992-5.134,5.631c-0.376,0.838-0.921,2.053-1.283,2.537h-0.912c0-6.114,0-11.212,0-13.613h11.722
	c0.585,0.931,1.614,1.556,2.795,1.556c1.826,0,3.306-1.48,3.306-3.306c0-1.826-1.48-3.306-3.306-3.306
	c-1.181,0-2.21,0.624-2.795,1.556h-11.828c-1.452-0.708-19.496-9.303-40.268-9.303c-20.772,0-38.816,8.595-40.268,9.303H29.96
	c-0.585-0.932-1.614-1.556-2.795-1.556c-1.826,0-3.306,1.48-3.306,3.306c0,1.826,1.48,3.306,3.306,3.306
	c1.181,0,2.21-0.624,2.795-1.556h33.015c0,1.612,0,4.439,0,7.973H46.101c-0.585-0.931-1.614-1.556-2.795-1.556
	c-1.826,0-3.306,1.48-3.306,3.306c0,1.826,1.48,3.306,3.306,3.306c1.181,0,2.21-0.624,2.795-1.556h16.872c0,3.183,0,6.725,0,10.356
	H45.808c-0.979-1.201-2.148-2.649-2.651-3.327c-1.225-1.655-2.48-2.637-5.042-2.732l0.133-0.069
	c-1.203-2.324-4.363-7.729-7.688-7.729h-6.873c-0.585-0.931-1.614-1.556-2.795-1.556c-1.826,0-3.306,1.48-3.306,3.306
	c0,1.826,1.48,3.306,3.306,3.306c1.181,0,2.21-0.624,2.795-1.556l6.854-0.001c0.71,0.101,2.331,2.014,3.716,4.279h-6.732
	c-1.562,0-2.611,1.518-3.826,3.274c-0.368,0.532-0.949,1.373-1.297,1.734h-5.184c-0.873-2.476-3.227-4.253-6.002-4.253
	c-3.518,0-6.369,2.852-6.369,6.369c0,3.518,2.852,6.369,6.369,6.369c3.041,0,5.581-2.133,6.214-4.984h5.358
	c1.547,0,2.586-1.503,3.79-3.244c0.375-0.543,0.97-1.403,1.323-1.764h9.812c1.642,0,1.931,0.39,2.63,1.334
	c0.669,0.903,2.347,2.965,3.405,4.257c-1.059,1.292-2.737,3.355-3.405,4.258c-0.699,0.943-0.988,1.333-2.63,1.333h-6.156
	c-0.562-1.023-1.637-1.725-2.887-1.725c-1.826,0-3.306,1.48-3.306,3.306c0,1.826,1.48,3.306,3.306,3.306
	c1.108,0,2.083-0.55,2.683-1.386h6.36c2.848,0,4.151-1.008,5.442-2.75c0.449-0.606,1.431-1.828,2.334-2.938h17.483
	c0,3.506,0,6.943,0,10.076H62.16c-2.024,0-2.98,2.134-4.089,4.605c-0.506,1.127-1.437,3.205-2.024,3.563H42.122
	c-0.781-0.33-1.485-0.682-1.798-0.969c-0.106-0.161-0.272-0.81-0.393-1.284c-0.487-1.909-1.302-5.103-4.2-5.103h-8.292
	c-0.445-2.546-2.661-4.484-5.335-4.484c-2.994,0-5.421,2.427-5.421,5.421c0,2.994,2.427,5.421,5.421,5.421
	c2.674,0,4.89-1.937,5.335-4.484h8.292c1.333,0,1.867,1.672,2.383,3.691c0.256,1.003,0.44,1.728,0.887,2.142
	c0.547,0.508,1.517,0.999,2.453,1.396c-0.936,0.398-1.906,0.889-2.453,1.397c-0.446,0.414-0.631,1.139-0.887,2.143
	c-0.516,2.02-1.05,3.692-2.383,3.692h-1.251c-0.436-1.316-1.662-2.271-3.125-2.271c-1.826,0-3.306,1.48-3.306,3.306
	c0,1.826,1.48,3.306,3.306,3.306c1.534,0,2.812-1.05,3.185-2.466h1.19c2.898,0,3.713-3.195,4.2-5.104
	c0.12-0.474,0.286-1.123,0.346-1.232c0.337-0.314,1.057-0.681,1.849-1.019h14.006c2.609,0,3.95-2.992,5.134-5.632
	c0.376-0.838,0.92-2.052,1.282-2.537h0.426c0,3.931,0,7.104,0,8.885c0,1.219,0.767,2.693,2.085,4.328H52.116
	c-0.585-0.932-1.614-1.556-2.795-1.556c-1.826,0-3.306,1.48-3.306,3.306s1.48,3.306,3.306,3.306c1.181,0,2.21-0.624,2.795-1.556
	h16.301c11.018,10.127,34.93,23.338,34.93,23.338s23.912-13.211,34.93-23.338h27.178c0.585,0.932,1.614,1.556,2.795,1.556
	c1.826,0,3.306-1.48,3.306-3.306s-1.48-3.306-3.306-3.306c-1.181,0-2.21,0.624-2.795,1.556h-23.82
	c1.317-1.635,2.085-3.109,2.085-4.328c0-0.881,0-2.106,0-3.591h17.219c0.585,0.932,1.614,1.556,2.795,1.556
	c1.826,0,3.306-1.48,3.306-3.306c0-1.826-1.48-3.306-3.306-3.306c-1.181,0-2.21,0.624-2.795,1.556h-17.219c0-2.882,0-6.29,0-9.924
	h17.324c0.979,1.201,2.147,2.648,2.649,3.327c1.226,1.655,2.48,2.637,5.043,2.732l-0.133,0.069c1.203,2.324,4.362,7.729,7.687,7.729
	h6.874c0.585,0.932,1.614,1.556,2.795,1.556c1.826,0,3.306-1.48,3.306-3.306c0-1.826-1.48-3.306-3.306-3.306
	c-1.181,0-2.21,0.624-2.795,1.556l-6.855,0.001c-0.71-0.101-2.33-2.014-3.715-4.279h6.731c1.562,0,2.612-1.517,3.826-3.274
	c0.368-0.532,0.949-1.373,1.298-1.734h5.183c0.873,2.476,3.227,4.253,6.002,4.253c3.518,0,6.369-2.852,6.369-6.369
	C202.004,91.659,199.153,88.807,195.635,88.807z"/>
<g>
	<path d="M76.354,27.803c1.219,1.594,1.688,2.281,3.906,2.469v2.562h-7.25l-6.719-9.156h-1.656v3.594
		c0,2.125,0.219,2.812,2.594,2.969l0.438,0.031v2.562h-11.25v-2.562l0.25-0.031c2.406-0.156,2.438-0.719,2.438-2.938V16.928
		c0-1.969-0.031-2.656-2.312-2.781l-0.375-0.031v-2.562h11.781c1.938,0,4.156,0.062,6,0.719c2.156,0.781,3.625,2.562,3.625,4.906
		c0,3.031-2.312,5.312-5.188,5.844L76.354,27.803z M66.604,20.678c1.062,0,2.188-0.031,3.125-0.469
		c1.125-0.531,2.062-1.469,2.062-2.719c0-0.875-0.75-1.812-1.438-2.344c-0.844-0.625-2.062-0.719-3.062-0.719
		c-0.844,0-1.969,0.062-2.406,0.469c-0.219,0.188-0.25,0.594-0.25,0.938v4.844H66.604z"/>
	<path d="M96.329,32.834H85.11v-2.562c0.781-0.031,1.875-0.188,2.344-0.625c0.406-0.406,0.438-1.156,0.438-1.812V16.678
		c0-0.625-0.031-1.375-0.344-1.781c-0.406-0.531-1.562-0.719-2.219-0.75l-0.219-0.031v-2.562h11.219v2.594
		c-0.875,0.031-1.969,0.156-2.469,0.625c-0.406,0.375-0.438,1.125-0.438,1.781v11.375c0,0.594,0.031,1.219,0.312,1.562
		c0.438,0.562,1.625,0.75,2.312,0.781h0.281V32.834z"/>
	<path d="M115.988,11.553h1.875l2.062,6.344l-2.25,0.844l-0.281-0.406c-0.719-1-1.594-2.188-2.625-2.875
		c-1.125-0.781-2.469-1.281-3.844-1.281c-1.406,0-3.438,0.531-3.438,2.25c0,1.531,2.344,1.875,3.438,2.156l1.156,0.25l2.094,0.562
		c1.562,0.438,3.469,0.875,4.844,1.75c1.5,0.969,2.25,2.781,2.25,4.531c0,4.906-4.281,7.688-8.812,7.688
		c-1.812,0-4.156-0.562-5.594-1.719l-0.438,1.438h-1.875l-2.594-7.875l2.375-0.781c1.625,3.156,4.344,5.781,8.094,5.781
		c1.719,0,4-0.688,4-2.75c0-1.719-2.062-2.031-3.344-2.344l-3.531-0.875c-1.531-0.375-3.531-0.844-4.812-1.75
		c-1.469-1.062-2.156-2.781-2.156-4.562c0-4.375,3.938-6.906,7.969-6.906c1.719,0,3.625,0.562,5.062,1.531L115.988,11.553z"/>
	<path d="M141.399,26.209h-2.438c-0.094-0.875-0.312-1.875-0.812-2.625s-1.531-0.781-2.375-0.781h-0.875v4.031
		c0,0.844,0,2,0.125,2.344c0.281,0.781,1.656,0.781,2.312,0.781c4.406,0,6.906-2.062,9.344-5.562l2.188,1.062l-3.438,7.375h-18.562
		v-2.562l0.531-0.094c1.906-0.344,1.969-1.031,1.969-2.969V16.334c0-1.188-0.125-1.812-1.781-2.094l-0.719-0.125v-2.562h18.031
		l3.094,6.469l-2.125,1.031c-1.875-2.781-4.375-4.625-7.875-4.625c-0.594,0-2.375,0.031-2.781,0.562
		c-0.281,0.375-0.312,1.188-0.312,1.875v3.062h1.562c0.75,0,1.531-0.062,1.969-0.656c0.438-0.656,0.531-1.938,0.531-2.75h2.438
		V26.209z"/>
</g>
<g>
	<path d="M224.607,62.749c1.219,1.594,1.688,2.281,3.906,2.469v2.562h-7.25l-6.719-9.156h-1.656v3.594
		c0,2.125,0.219,2.812,2.594,2.969l0.438,0.031v2.562h-11.25v-2.562l0.25-0.031c2.406-0.156,2.438-0.719,2.438-2.938V51.874
		c0-1.969-0.031-2.656-2.312-2.781l-0.375-0.031v-2.562h11.781c1.938,0,4.156,0.062,6,0.719c2.156,0.781,3.625,2.562,3.625,4.906
		c0,3.031-2.312,5.312-5.188,5.844L224.607,62.749z M214.857,55.624c1.062,0,2.188-0.031,3.125-0.469
		c1.125-0.531,2.062-1.469,2.062-2.719c0-0.875-0.75-1.812-1.438-2.344c-0.844-0.625-2.062-0.719-3.062-0.719
		c-0.844,0-1.969,0.062-2.406,0.469c-0.219,0.188-0.25,0.594-0.25,0.938v4.844H214.857z"/>
	<path d="M231.456,66.124c-1.781-1.531-2.688-3.906-2.688-6.25c0-5.156,3.344-8.188,8.469-8.188c2.156,0,4.5,0.438,6.156,1.875
		c1.812,1.562,2.688,4,2.688,6.344c0,2.219-0.781,4.469-2.438,6c-1.625,1.562-4.062,2.125-6.25,2.125
		C235.331,68.03,233.05,67.467,231.456,66.124z M240.425,59.967c0-2.094-0.281-5.125-3-5.125s-3,3.031-3,5.125
		c0,2.031,0.406,4.906,3,4.906C240.05,64.874,240.425,61.999,240.425,59.967z"/>
	<path d="M264.929,66.405c-1.156,1.031-2.469,1.625-4,1.625c-1.281,0-2.719-0.594-3.469-1.625c-1.531,1.062-3.156,1.625-5.031,1.625
		c-2.656,0-5-1.469-5-4.344c0-4.531,5.906-5.469,9.344-5.812V56.53c0-0.5-0.031-1.031-0.25-1.375
		c-0.312-0.469-1.25-0.594-1.781-0.594s-1.219,0.094-1.594,0.438c-0.312,0.25-0.312,0.531-0.312,0.906
		c0,0.531-0.062,1.062-0.375,1.531c-0.469,0.625-1.281,0.938-2,0.938c-1.312,0-2.344-0.969-2.344-2.281
		c0-1.469,0.969-2.656,2.188-3.375c1.469-0.844,3.156-1.031,4.812-1.031c1.562,0,3.344,0.219,4.688,1.031
		c1.812,1.062,2,2.625,2,4.531v6.344c0,0.469,0.031,1.188,0.531,1.188c0.25,0,0.688-0.344,0.875-0.5L264.929,66.405z
		 M256.772,60.405c-1.406,0.25-4.031,0.75-4.031,2.594c0,0.844,0.594,1.594,1.469,1.594c0.906,0,1.938-0.438,2.562-1.094V60.405z"/>
	<path d="M272.37,62.811c0,1.875,0.344,2.062,1.5,2.375l0.25,0.031v2.562h-9.375v-2.562c2.375-0.25,2.406-0.812,2.406-2.812v-4.312
		c0-1.812-0.062-2.375-2.188-2.625h-0.219v-2.562l5.562-0.812h1.594v1.344c1.625-1.062,3.312-1.75,5.25-1.75
		c1.406,0,2.812,0.438,3.875,1.469c1.219,1.188,1.281,2.406,1.281,4v5.625c0,0.469,0,1,0.125,1.344
		c0.219,0.75,0.781,0.812,1.438,0.969l0.562,0.125v2.562h-9.094v-2.562c1.719-0.312,1.75-0.844,1.75-2.156v-5.5
		c0-1.031-0.031-2.406-1.469-2.406c-1.125,0-2.469,0.844-3.25,1.625V62.811z"/>
	<path d="M288.343,66.124c-1.781-1.531-2.688-3.906-2.688-6.25c0-5.156,3.344-8.188,8.469-8.188c2.156,0,4.5,0.438,6.156,1.875
		c1.812,1.562,2.688,4,2.688,6.344c0,2.219-0.781,4.469-2.438,6c-1.625,1.562-4.062,2.125-6.25,2.125
		C292.218,68.03,289.937,67.467,288.343,66.124z M297.312,59.967c0-2.094-0.281-5.125-3-5.125s-3,3.031-3,5.125
		c0,2.031,0.406,4.906,3,4.906C296.937,64.874,297.312,61.999,297.312,59.967z"/>
	<path d="M313.44,56.405c0.188-0.219,0.875-0.844,0.875-1.156c0-0.469-0.469-0.531-0.812-0.562l-0.344-0.031v-2.562h9.031v2.562
		c-1.531,0.125-2.188,0.438-3.281,1.25l-2.469,1.844l4.031,5.625c0.75,1.062,1.5,1.719,2.844,1.844h0.219v2.562h-9.344v-2.562
		c0.469-0.062,1.031-0.156,1.031-0.562c0-0.281-0.375-0.844-0.531-1.062l-1.906-2.906l-0.969,1.031v1.25
		c0,0.438,0,0.844,0.125,1.219c0.188,0.594,0.688,0.938,1.312,1.031h0.25v2.562h-9.281v-2.562c2.344-0.438,2.375-0.562,2.375-2.75
		V51.186c0-0.594-0.031-1.406-0.375-1.688c-0.469-0.344-1.344-0.438-2.094-0.438v-2.562c2.062-0.094,4.094-0.531,6-1.375h1.688
		v13.188L313.44,56.405z"/>
	<path d="M330.069,59.592c0,2.969,1.062,5.281,3.781,5.281c1.844,0,3.188-1.375,4.094-2.875l2.625,1.312
		c-1.719,3.062-4.094,4.719-7.688,4.719c-4.906,0-8.469-3.281-8.469-8.281c0-4.812,3.5-8.062,8.219-8.062
		c4.25,0,7.562,2.562,7.562,6.938v0.969H330.069z M334.851,57.03c-0.031-1.344-0.938-2.25-2.188-2.25s-2.312,0.906-2.438,2.25
		H334.851z"/>
</g>
<g>
	<path d="M215.889,108.038H204.67v-2.562c0.781-0.031,1.875-0.188,2.344-0.625c0.406-0.406,0.438-1.156,0.438-1.812V91.881
		c0-0.625-0.031-1.375-0.344-1.781c-0.406-0.531-1.562-0.719-2.219-0.75l-0.219-0.031v-2.562h11.219v2.594
		c-0.875,0.031-1.969,0.156-2.469,0.625c-0.406,0.375-0.438,1.125-0.438,1.781v11.375c0,0.594,0.031,1.219,0.312,1.562
		c0.438,0.562,1.625,0.75,2.312,0.781h0.281V108.038z"/>
	<path d="M224.234,103.069c0,1.875,0.344,2.062,1.5,2.375l0.25,0.031v2.562h-9.375v-2.562c2.375-0.25,2.406-0.812,2.406-2.812V98.35
		c0-1.812-0.062-2.375-2.188-2.625h-0.219v-2.562l5.562-0.812h1.594v1.344c1.625-1.062,3.312-1.75,5.25-1.75
		c1.406,0,2.812,0.438,3.875,1.469c1.219,1.188,1.281,2.406,1.281,4v5.625c0,0.469,0,1,0.125,1.344
		c0.219,0.75,0.781,0.812,1.438,0.969l0.562,0.125v2.562h-9.094v-2.562c1.719-0.312,1.75-0.844,1.75-2.156v-5.5
		c0-1.031-0.031-2.406-1.469-2.406c-1.125,0-2.469,0.844-3.25,1.625V103.069z"/>
	<path d="M247.739,95.163h-2.781v7.688c0,1.906,0.062,2.625,2.312,2.625h0.469v2.562h-10.5v-2.562c2.469-0.188,2.5-0.75,2.5-2.781
		v-7.531h-2.5V92.35h2.5v-0.625c0-2.094,0.25-3.688,2.031-5.062c1.5-1.156,3.344-1.781,5.219-1.781c1.719,0,3.969,0.625,3.969,2.781
		c0,1.281-1.219,2.125-2.438,2.125c-0.75,0-1.25-0.375-1.656-1c-0.25-0.344-0.406-0.625-0.875-0.625
		c-0.969,0-1.031,1.062-1.031,1.875v2.312h2.781V95.163z"/>
	<path d="M251.46,106.381c-1.781-1.531-2.688-3.906-2.688-6.25c0-5.156,3.344-8.188,8.469-8.188c2.156,0,4.5,0.438,6.156,1.875
		c1.812,1.562,2.688,4,2.688,6.344c0,2.219-0.781,4.469-2.438,6c-1.625,1.562-4.062,2.125-6.25,2.125
		C255.335,108.288,253.054,107.725,251.46,106.381z M260.429,100.225c0-2.094-0.281-5.125-3-5.125s-3,3.031-3,5.125
		c0,2.031,0.406,4.906,3,4.906C260.054,105.131,260.429,102.256,260.429,100.225z"/>
	<path d="M281.245,86.756h1.875l2.062,6.344l-2.25,0.844l-0.281-0.406c-0.719-1-1.594-2.188-2.625-2.875
		c-1.125-0.781-2.469-1.281-3.844-1.281c-1.406,0-3.438,0.531-3.438,2.25c0,1.531,2.344,1.875,3.438,2.156l1.156,0.25l2.094,0.562
		c1.562,0.438,3.469,0.875,4.844,1.75c1.5,0.969,2.25,2.781,2.25,4.531c0,4.906-4.281,7.688-8.812,7.688
		c-1.812,0-4.156-0.562-5.594-1.719l-0.438,1.438h-1.875l-2.594-7.875l2.375-0.781c1.625,3.156,4.344,5.781,8.094,5.781
		c1.719,0,4-0.688,4-2.75c0-1.719-2.062-2.031-3.344-2.344l-3.531-0.875c-1.531-0.375-3.531-0.844-4.812-1.75
		c-1.469-1.062-2.156-2.781-2.156-4.562c0-4.375,3.938-6.906,7.969-6.906c1.719,0,3.625,0.562,5.062,1.531L281.245,86.756z"/>
	<path d="M293.187,99.85c0,2.969,1.062,5.281,3.781,5.281c1.844,0,3.188-1.375,4.094-2.875l2.625,1.312
		c-1.719,3.062-4.094,4.719-7.688,4.719c-4.906,0-8.469-3.281-8.469-8.281c0-4.812,3.5-8.062,8.219-8.062
		c4.25,0,7.562,2.562,7.562,6.938v0.969H293.187z M297.968,97.288c-0.031-1.344-0.938-2.25-2.188-2.25s-2.312,0.906-2.438,2.25
		H297.968z"/>
	<path d="M321.252,103.538c-1.375,3.25-4.531,4.75-7.969,4.75c-4.812,0-8.25-3.25-8.25-8.156c0-5,3.562-8.188,8.438-8.188
		c1.562,0,3,0.375,4.375,1.094c1.375,0.75,2.656,1.906,2.656,3.594c0,1.5-1.125,2.562-2.625,2.562c-0.688,0-1.406-0.312-1.906-0.781
		c-0.5-0.5-0.625-0.938-0.625-1.562V96.6c0-0.562,0-0.969-0.5-1.344c-0.312-0.219-0.906-0.438-1.281-0.438
		c-2.5,0-2.875,3.562-2.875,5.406c0,2.25,1.031,4.906,3.625,4.906c1.938,0,3.594-1.25,4.406-2.906L321.252,103.538z"/>
</g>
<g>
	<path d="M219.201,141.671h-2.438c-0.094-0.875-0.312-1.875-0.812-2.625s-1.531-0.781-2.375-0.781h-0.875v4.031
		c0,0.844,0,2,0.125,2.344c0.281,0.781,1.656,0.781,2.312,0.781c4.406,0,6.906-2.062,9.344-5.562l2.188,1.062l-3.438,7.375H204.67
		v-2.562l0.531-0.094c1.906-0.344,1.969-1.031,1.969-2.969v-10.875c0-1.188-0.125-1.812-1.781-2.094l-0.719-0.125v-2.562h18.031
		l3.094,6.469l-2.125,1.031c-1.875-2.781-4.375-4.625-7.875-4.625c-0.594,0-2.375,0.031-2.781,0.562
		c-0.281,0.375-0.312,1.188-0.312,1.875v3.062h1.562c0.75,0,1.531-0.062,1.969-0.656c0.438-0.656,0.531-1.938,0.531-2.75h2.438
		V141.671z"/>
	<path d="M244.174,135.171c-1.969,0.531-3.531,1.438-5,2.781l-1.938,1.75l3.125,3.906c0.875,1.094,2.5,2.031,4.031,2.125v2.562
		h-9.719v-2.562c0.375-0.031,1.25-0.094,1.25-0.656c0-0.344-0.844-1.375-1.062-1.656l-0.656-0.906l-0.812,0.75
		c-0.219,0.219-1.281,1.188-1.281,1.781v0.062c0.188,0.625,1.25,0.594,1.688,0.625v2.562h-7.625v-2.562
		c1.75-0.688,3-2.094,4.25-3.438l2.062-2.156l-1.875-2.594c-0.844-1.188-2.281-2.219-3.812-2.375v-2.562h9v2.562
		c-0.656,0.031-1.375,0.125-1.375,0.5c0,0.312,0.594,1.188,0.75,1.375l0.594,0.75l0.906-0.812c0.188-0.188,1-1.062,1-1.406
		c0-0.375-0.781-0.406-1-0.406v-2.562h7.5V135.171z"/>
	<path d="M261.24,143.796c-1.375,3.25-4.531,4.75-7.969,4.75c-4.812,0-8.25-3.25-8.25-8.156c0-5,3.562-8.188,8.438-8.188
		c1.562,0,3,0.375,4.375,1.094c1.375,0.75,2.656,1.906,2.656,3.594c0,1.5-1.125,2.562-2.625,2.562c-0.688,0-1.406-0.312-1.906-0.781
		c-0.5-0.5-0.625-0.938-0.625-1.562v-0.25c0-0.562,0-0.969-0.5-1.344c-0.312-0.219-0.906-0.438-1.281-0.438
		c-2.5,0-2.875,3.562-2.875,5.406c0,2.25,1.031,4.906,3.625,4.906c1.938,0,3.594-1.25,4.406-2.906L261.24,143.796z"/>
	<path d="M279.868,142.796c0,0.531,0,1.344,0.156,1.875c0.219,0.719,0.75,0.812,1.438,0.938l0.531,0.125v2.562h-9.094v-2.562
		l0.312-0.062c0.438-0.156,0.969-0.25,1.219-0.781c0.188-0.438,0.219-1.156,0.219-1.719v-5.75c0-0.844-0.094-1.75-1.094-1.75h-0.25
		c-1.188,0-2.625,0.594-3.375,1.25v6.375c0,0.469,0,1,0.125,1.375c0.062,0.719,0.625,0.812,1.125,0.938l0.5,0.125v2.562h-9.281
		v-2.562c2.219-0.281,2.312-0.719,2.312-2.5v-11.531c0-0.594-0.031-1.406-0.375-1.688c-0.469-0.344-1.344-0.438-2.094-0.438v-2.562
		c2.062-0.094,4.094-0.531,6-1.375h1.688v8.094c1.5-0.844,3.156-1.531,5.031-1.531c1.406,0,2.781,0.562,3.781,1.594
		c1.094,1.156,1.125,2.344,1.125,3.844V142.796z"/>
	<path d="M300.561,146.921c-1.156,1.031-2.469,1.625-4,1.625c-1.281,0-2.719-0.594-3.469-1.625
		c-1.531,1.062-3.156,1.625-5.031,1.625c-2.656,0-5-1.469-5-4.344c0-4.531,5.906-5.469,9.344-5.812v-1.344
		c0-0.5-0.031-1.031-0.25-1.375c-0.312-0.469-1.25-0.594-1.781-0.594s-1.219,0.094-1.594,0.438c-0.312,0.25-0.312,0.531-0.312,0.906
		c0,0.531-0.062,1.062-0.375,1.531c-0.469,0.625-1.281,0.938-2,0.938c-1.312,0-2.344-0.969-2.344-2.281
		c0-1.469,0.969-2.656,2.188-3.375c1.469-0.844,3.156-1.031,4.812-1.031c1.562,0,3.344,0.219,4.688,1.031
		c1.812,1.062,2,2.625,2,4.531v6.344c0,0.469,0.031,1.188,0.531,1.188c0.25,0,0.688-0.344,0.875-0.5L300.561,146.921z
		 M292.404,140.921c-1.406,0.25-4.031,0.75-4.031,2.594c0,0.844,0.594,1.594,1.469,1.594c0.906,0,1.938-0.438,2.562-1.094V140.921z"
		/>
	<path d="M308.001,143.327c0,1.875,0.344,2.062,1.5,2.375l0.25,0.031v2.562h-9.375v-2.562c2.375-0.25,2.406-0.812,2.406-2.812
		v-4.312c0-1.812-0.062-2.375-2.188-2.625h-0.219v-2.562l5.562-0.812h1.594v1.344c1.625-1.062,3.312-1.75,5.25-1.75
		c1.406,0,2.812,0.438,3.875,1.469c1.219,1.188,1.281,2.406,1.281,4v5.625c0,0.469,0,1,0.125,1.344
		c0.219,0.75,0.781,0.812,1.438,0.969l0.562,0.125v2.562h-9.094v-2.562c1.719-0.312,1.75-0.844,1.75-2.156v-5.5
		c0-1.031-0.031-2.406-1.469-2.406c-1.125,0-2.469,0.844-3.25,1.625V143.327z"/>
	<path d="M332.756,145.89c1.281,0.094,2.719,0.281,3.781,1.094c1,0.75,1.438,1.844,1.438,3.094c0,2.062-1.344,3.938-3.188,4.781
		c-1.719,0.781-4.219,1.031-6.125,1.031c-2.688,0-8.062-0.469-8.062-4.156c0-1.406,0.875-2.312,2.094-2.812
		c-0.938-0.688-1.531-1.594-1.531-2.75c0-1.812,1.188-3.438,2.969-3.781c-1.344-0.906-2.125-2.562-2.125-4.188
		c0-3.875,3.312-6,6.906-6c0.906,0,1.812,0.125,2.719,0.281c1.062-1.562,2.469-2.781,4.469-2.781c1.25,0,2.438,0.844,2.438,2.156
		c0,1.031-0.969,1.719-1.969,1.719c-0.594,0-1.062-0.406-1.656-0.406c-0.438,0-0.719,0.094-0.969,0.438
		c1.469,1.062,2.406,2.594,2.406,4.469c0,3.969-3.312,5.969-6.969,5.969c-0.812,0-1.781-0.094-2.594-0.281
		c-0.156-0.031-0.312-0.062-0.469-0.062c-0.406,0-0.625,0.344-0.625,0.719c0,1.094,2.188,1.031,2.875,1.094L332.756,145.89z
		 M325.131,150.046c-0.531,0.281-1.062,0.844-1.062,1.5c0,1.531,3.562,1.75,4.562,1.75c0.906,0,2.719-0.094,3.531-0.406
		c0.5-0.188,0.938-0.469,0.938-1.062c0-1.031-1.375-1-2.094-1.125L325.131,150.046z M326.975,138.358
		c0,1.562,0.312,3.031,2.156,3.031s2.25-1.469,2.25-3.031c0-1.688-0.312-3.281-2.344-3.281
		C327.162,135.077,326.975,136.921,326.975,138.358z"/>
	<path d="M344.446,140.108c0,2.969,1.062,5.281,3.781,5.281c1.844,0,3.188-1.375,4.094-2.875l2.625,1.312
		c-1.719,3.062-4.094,4.719-7.688,4.719c-4.906,0-8.469-3.281-8.469-8.281c0-4.812,3.5-8.062,8.219-8.062
		c4.25,0,7.562,2.562,7.562,6.938v0.969H344.446z M349.228,137.546c-0.031-1.344-0.938-2.25-2.188-2.25s-2.312,0.906-2.438,2.25
		H349.228z"/>
</g>
<path fill="#35485E" d="M106.598,81.183c2.342-1.168,3.954-3.58,3.954-6.374c0-3.936-3.19-7.126-7.126-7.126
	c-3.936,0-7.126,3.19-7.126,7.126c0,2.794,1.612,5.206,3.954,6.374c-0.827,3.696-2.163,9.764-2.756,12.991
	c-0.889,4.841-1.778,9.683,0.889,9.683s5.039,0,5.039,0s2.371,0,5.039,0s1.778-4.841,0.889-9.683
	C108.761,90.946,107.425,84.879,106.598,81.183z"/>
<g>
	<path d="M155.702,54.555h-6.418V51.75c-5.655-2.582-24.4-10.323-45.858-10.323c-21.457,0-40.201,7.74-45.858,10.323v2.805H51.15
		V47.77l1.737-0.896c0.938-0.484,23.304-11.864,50.539-11.864c27.234,0,49.601,11.379,50.539,11.864l1.737,0.896V54.555z"/>
</g>
<path d="M142.801,124.75c-0.103,0.117-10.318,9.931-22.988,18.128c-9.166,5.932-14.263,8.625-16.387,9.664
	c-2.124-1.039-7.221-3.732-16.387-9.664c-12.67-8.197-22.886-18.011-22.988-18.128h-9c0.441,0.507,15.052,14.814,28.502,23.517
	c13.337,8.631,18.479,10.707,18.69,10.791l1.183,0.469l1.183-0.469c0.212-0.084,5.354-2.16,18.69-10.791
	c13.45-8.702,28.061-23.01,28.502-23.517H142.801z"/>
</svg>
